<?xml version="1.0" standalone="no"?><!-- Generator: Gravit.io --><svg xmlns="http://www.w3.org/2000/svg" xmlns:xlink="http://www.w3.org/1999/xlink" style="isolation:isolate" viewBox="0 0 512 512" width="512" height="512"><defs><clipPath id="_clipPath_uqT7Owam5Ij3mxAmlKFwhn2OCVK3v969"><rect width="512" height="512"/></clipPath></defs><g clip-path="url(#_clipPath_uqT7Owam5Ij3mxAmlKFwhn2OCVK3v969)"><defs><filter id="IOjR9HT7oJyXrfFtqkadAI3Qcihp0RU8" x="14" y="36" width="441" height="440" filterUnits="userSpaceOnUse"><feGaussianBlur xmlns="http://www.w3.org/2000/svg" in="SourceGraphic" stdDeviation="2.146804531419514"/><feOffset xmlns="http://www.w3.org/2000/svg" dx="0" dy="0" result="pf_100_offsetBlur"/><feFlood xmlns="http://www.w3.org/2000/svg" flood-color="#000000" flood-opacity="0.65"/><feComposite xmlns="http://www.w3.org/2000/svg" in2="pf_100_offsetBlur" operator="in" result="pf_100_dropShadow"/><feBlend xmlns="http://www.w3.org/2000/svg" in="SourceGraphic" in2="pf_100_dropShadow" mode="normal"/></filter></defs><g filter="url(#IOjR9HT7oJyXrfFtqkadAI3Qcihp0RU8)"><path d=" M 333 397 Q 346 384 363 384 Q 380 384 392.5 397 Q 405 410 405 427 Q 405 444 392.5 456.5 Q 380 469 363 469 Q 346 469 333 456.5 Q 320 444 320 427 Q 320 410 333 397 Z  M 21 43 L 91 43 L 111 85 L 427 85 Q 436 85 442 91.5 Q 448 98 448 107 Q 448 112 445 117 L 369 255 Q 357 277 332 277 L 173 277 L 154 312 L 153 315 Q 153 320 158 320 L 405 320 L 405 363 L 149 363 Q 132 363 119.5 350 Q 107 337 107 320 Q 107 310 112 300 L 141 247 L 64 85 L 21 85 L 21 43 Z  M 119.5 397 Q 132 384 149 384 Q 166 384 179 397 Q 192 410 192 427 Q 192 444 179 456.5 Q 166 469 149 469 Q 132 469 119.5 456.5 Q 107 444 107 427 Q 107 410 119.5 397 Z " fill="rgb(255,255,255)"/></g></g></svg>